<?xml version="1.0" encoding="UTF-8" standalone="no"?>
<svg
   xmlns:dc="http://purl.org/dc/elements/1.1/"
   xmlns:cc="http://creativecommons.org/ns#"
   xmlns:rdf="http://www.w3.org/1999/02/22-rdf-syntax-ns#"
   xmlns:svg="http://www.w3.org/2000/svg"
   xmlns="http://www.w3.org/2000/svg"
   xmlns:sodipodi="http://sodipodi.sourceforge.net/DTD/sodipodi-0.dtd"
   xmlns:inkscape="http://www.inkscape.org/namespaces/inkscape"
   inkscape:version="1.0 (4035a4f, 2020-05-01)"
   sodipodi:docname="play-icon.svg"
   id="svg849"
   viewBox="0 0 16.336 18.43"
   version="1.1"
   height="18.43mm"
   width="16.336mm">
  <defs
     id="defs853" />
  <sodipodi:namedview
     inkscape:current-layer="svg849"
     inkscape:window-maximized="0"
     inkscape:window-y="25"
     inkscape:window-x="0"
     inkscape:cy="68.74941"
     inkscape:cx="16.094252"
     inkscape:zoom="3.3618113"
     showgrid="false"
     id="namedview851"
     inkscape:window-height="787"
     inkscape:window-width="1440"
     inkscape:pageshadow="2"
     inkscape:pageopacity="0"
     guidetolerance="10"
     gridtolerance="10"
     objecttolerance="10"
     borderopacity="1"
     bordercolor="#666666"
     pagecolor="#ffffff" />
  <metadata
     id="metadata833">
    <rdf:RDF>
      <cc:Work
         rdf:about="">
        <dc:format>image/svg+xml</dc:format>
        <dc:type
           rdf:resource="http://purl.org/dc/dcmitype/StillImage" />
        <dc:title />
      </cc:Work>
    </rdf:RDF>
  </metadata>
  <g
     style="fill:#ffffff;fill-opacity:1"
     id="g847"
     transform="translate(-196.04 -139.5)">
    <path
       style="fill:#ffffff;fill-opacity:1"
       id="path835"
       d="m160.05 139.57c-0.59913 0-1.0816 0.51212-1.0816 1.1481v15.689c0 0.63597 0.48246 1.1476 1.0816 1.1476h3.9651c0.59913 0 1.0816-0.51158 1.0816-1.1476v-15.689c0-0.63598-0.48246-1.1481-1.0816-1.1481zm8.2445 0c-0.59913 0-1.0811 0.51212-1.0811 1.1481v15.689c0 0.63597 0.48194 1.1476 1.0811 1.1476h3.9656c0.59913 0 1.0816-0.51158 1.0816-1.1476v-15.689c0-0.63598-0.48246-1.1481-1.0816-1.1481z" />
    <path
       style="fill:#ffffff;fill-opacity:1"
       id="path837"
       d="m196.04 157.07c0 0.77883 0.8374 0.99797 1.2363 0.76443l14.731-8.4518c0.48978-0.28677 0.49021-0.97693 0.015-1.2552l-14.673-8.4517c-0.54982-0.32194-1.2413-0.29026-1.2413 0.69259z" />
    <path
       style="fill:#ffffff;fill-opacity:1"
       id="path839"
       d="m159.18 166.81 3.6447-3.5926 0.46199-5e-3 0.91056 0.85298-1e-3 0.46035-1.4908 1.5222s2.5811-0.0313 3.5617 0.0495c1.1125 0.0917 2.3979 0.53902 3.3706 1.2362 0.96743 0.69342 1.7286 1.7056 2.2412 2.7798 0.36744 0.76988 0.52326 1.649 0.53861 2.5019 0.0172 0.95865-0.12327 1.9519-0.50386 2.832-0.42712 0.98764-1.0941 1.9093-1.9285 2.5887-0.82251 0.66975-1.8545 1.0896-2.8841 1.3446-0.79923 0.19792-1.6439 0.10669-2.4671 0.12162-0.17957 3e-3 -0.53874-7e-3 -0.53874-7e-3 -0.29943 0-0.3126-0.0169-0.3126-0.33215v-1.1722c0-0.3674 0.015-0.37199 0.34386-0.37199 0 0 1.2283 0.0912 1.8279-0.0174 0.93381-0.1691 1.9207-0.39779 2.6756-0.97295 0.74006-0.56389 1.3306-1.3904 1.6158-2.276 0.30538-0.94817 0.2757-2.0263 0.0174-2.9883-0.18108-0.67438-0.57539-1.304-1.0598-1.8069-0.55284-0.57389-1.2646-1.0188-2.0154-1.2857-0.66468-0.23626-1.398-0.20263-2.1022-0.24324-0.79787-0.046-2.3976 0-2.3976 0l1.5171 1.5171-0.0248 0.43073-0.89964 0.89964-0.46344-6e-3 -3.6854-3.6538z" />
    <path
       style="fill:#ffffff;fill-opacity:1"
       id="path841"
       d="m605.91 308.09a8.3161 8.3161 0 0 0-8.3164 8.3164 8.3161 8.3161 0 0 0 8.3164 8.3164 8.3161 8.3161 0 0 0 1.3633-0.11328l15.34 36.021c0.0922 0.20787 0.20608 0.33095 0.38281 0.33008h4.0312c0.17613 5.1e-4 0.19536-0.23436 0.12695-0.41211l-16.041-37.656a8.3161 8.3161 0 0 0 3.1133-6.4863 8.3161 8.3161 0 0 0-8.3164-8.3164zm20.684 0.0332-3.4922 0.0117c-0.47913-4e-3 -0.71189 0.15695-1.0234 0.70898l-6.9805 17.184 3.0156 6.4941 5.6797-14.828c0.0767-0.16226 0.27224-0.31929 0.48242-0.32617 0.27855 9e-3 0.55735 0.0128 0.83593 0.0215 0.1818 4e-3 0.43928 0.18714 0.49219 0.34766l17.238 44.709c0.0945 0.25093-0.0839 0.61116-0.25586 0.61133l-35.469 0.0781c-0.27779 2e-3 -0.37649-0.44371-0.26953-0.81836l6.3516-16.906-2.959-6.8496-12.428 30.625c-0.15043 0.45638-0.0262 0.9038 0.40039 0.90234h53.156c0.41703 1e-3 0.55098-0.40952 0.42773-0.84766l-24.189-60.428c-0.25134-0.38477-0.5384-0.70108-1.0137-0.68945z"
       transform="scale(.26458)" />
    <path
       style="fill:#ffffff;fill-opacity:1"
       id="path843"
       d="m57.337 105.7c-2.6406-0.0151-5.3102 0.48577-7.8068 1.3462-2.1508 0.74127-4.2496 1.7918-6.012 3.2303-2.5337 2.0681-4.7969 4.6232-6.2813 7.5375-1.3302 2.6116-1.9571 5.6003-2.1534 8.5246-0.15925 2.3729 0.14041 4.8061 0.80719 7.089 0.85886 2.9405 2.0705 5.9073 4.038 8.2553 2.1172 2.5266 4.9761 4.4897 7.9866 5.8327 2.9037 1.2954 6.1527 1.983 9.3322 1.974 2.8161-8e-3 5.6242-0.7904 8.2553-1.7942 2.4403-0.93101 4.6712-2.3736 6.8197-3.8587 1.7295-1.1955 3.3482-2.5616 4.8452-4.038 1.7671-1.7427 3.3501-3.6727 4.8457-5.6534 1.5997-2.1185 2.8358-4.493 4.3971-6.6399 1.327-1.8247 2.6625-3.6592 4.2173-5.2942 1.4019-1.4742 2.8973-2.8894 4.5765-4.038 1.6673-1.1405 3.4564-2.1766 5.3837-2.7817 1.9574-0.61462 4.0733-1.1143 6.102-0.8077 2.4746 0.37398 4.8332 1.6187 6.8197 3.1409 1.4835 1.1367 2.799 2.6137 3.5894 4.3072 0.92556 1.983 1.273 4.2748 1.1663 6.4606-0.0909 1.8631-0.61182 3.7574-1.5255 5.3836-1.0989 1.956-2.6879 3.7246-4.5765 4.9356-1.7756 1.1386-3.9154 1.7433-6.012 1.974-1.8224 0.20055-3.7196-5e-3 -5.4736-0.53847-0.81812-0.24899-1.6116-0.58905-2.3735-0.99271l1.7306-4.5692-8.9767 1.4624-8.9762 1.463 5.7547 7.0425 5.7552 7.0425 1.6154-4.2659c0.91472 0.34262 1.8554 0.62781 2.7786 0.89348 2.6669 0.76745 5.4819 1.1744 8.2553 1.0769 2.257-0.0794 4.5277-0.5467 6.6399-1.3462 2.2935-0.86811 4.4953-2.0993 6.3712-3.6788 1.9656-1.6552 3.6192-3.7154 4.9351-5.9226 1.0723-1.7986 1.8615-3.7921 2.3332-5.8322 0.5474-2.367 0.81172-4.8548 0.53847-7.2688-0.28519-2.5195-1.0849-5.0128-2.2433-7.2683-1.3556-2.6395-3.1976-5.0832-5.3842-7.089-1.486-1.3631-3.2781-2.3971-5.1144-3.2303-1.8184-0.82508-3.7686-1.4047-5.7428-1.7048-2.2476-0.34168-4.5795-0.47703-6.8197-0.0899-3.0495 0.52697-5.9936 1.7378-8.7044 3.2308-2.6358 1.4517-4.9666 3.4332-7.1784 5.4736-2.0394 1.8814-3.8467 4.0116-5.5635 6.1914-2.1561 2.7374-3.7642 5.8788-5.9226 8.6145-1.5217 1.9287-3.1076 3.8318-4.9351 5.4736-1.5934 1.4314-3.3115 2.7663-5.2043 3.7688-1.6305 0.86354-3.381 1.6059-5.2049 1.8846-2.0126 0.30756-4.1503 0.312-6.1014-0.26923-1.7993-0.53601-3.4927-1.57-4.8457-2.8717-1.6682-1.6048-3.0449-3.634-3.7688-5.8327-0.59978-1.8218-0.63033-3.844-0.35915-5.7428 0.27423-1.9201 0.9024-3.8569 1.974-5.4736 1.1928-1.7995 2.8277-3.4263 4.7563-4.3966 2.3111-1.1627 5.0492-1.6559 7.6269-1.4361 2.7347 0.23323 5.4872 1.2718 7.7174 2.8717 1.8081 1.2971 3.3562 3.3266 3.9057 4.9956l-24.137 0.0444c-0.42248 0.76181-0.74925 1.7736-0.9772 2.9714-0.21453 1.1273-0.26224 2.4781-0.23978 3.2701l29.107 9e-3 4.5977-7.0363c-0.66674-2.6036-1.3997-3.9673-2.882-6.2001-1.2637-1.9037-4.1904-4.9192-5.4271-5.6813-1.8449-1.1369-3.7756-2.1898-5.8327-2.8712-2.1943-0.72672-4.5083-1.2436-6.8197-1.2568z" />
    <rect
       style="fill:#ffffff;fill-opacity:1"
       id="rect845"
       ry="2.6844"
       height="18.024"
       width="18.024"
       y="139.64"
       x="174.98" />
  </g>
</svg>
